  0
SECTION
  2
HEADER
  9
$ACADVER
  1
AC1009
  9
$INSBASE
 10
0.0
 20
0.0
 30
0.0
  9
$EXTMIN
 10
0.0
 20
0.0
 30
0.0
  9
$EXTMAX
 10
0.0
 20
0.0
 30
0.0
  0
ENDSEC
  0
SECTION
  2
TABLES
  0
TABLE
  2
VPORT
 70
0
  0
ENDTAB
  0
TABLE
  2
LTYPE
 70
1
  0
LTYPE
  2
CONTINUOUS
 70
0
  3
Solid line
 72
65
 73
0
 40
0.0
  0
ENDTAB
  0
TABLE
  2
LAYER
 70
1
  0
LAYER
  2
0
 70
64
 62
7
  6
continuous
  0
ENDTAB
  0
TABLE
  2
STYLE
 70
1
  0
STYLE
  2
STANDARD
 70
0
 40
0
 41
1.0
 50
0.0
 71
0
 42
1
 3
ARIAL.TTF
 4

  0
ENDTAB
  0
TABLE
  2
VIEW
 70
0
  0
ENDTAB
  0
ENDSEC
  0
SECTION
  2
BLOCKS
  0
BLOCK
  8
0
  2
SKETCH001
 70
0
 10
0.0
 20
0.0
 30
0.0
  3
SKETCH001
  0
POLYLINE
  8
0
 62
7
 70
1
 66
1
 10
0.0
 20
0.0
 30
0.0
  0
VERTEX
  8
0
 10
-13.432026
 20
4.0
 30
0.0
  0
VERTEX
  8
0
 10
-15.0
 20
4.0
 30
0.0
  0
VERTEX
  8
0
 10
-15.0
 20
13.2918961979
 30
0.0
 42
-0.455592958976
  0
VERTEX
  8
0
 10
-13.5145058709
 20
15.0
 30
0.0
  0
VERTEX
  8
0
 10
-3.932026
 20
15.0
 30
0.0
  0
VERTEX
  8
0
 10
-3.932026
 20
13.5
 30
0.0
  0
VERTEX
  8
0
 10
-8.2
 20
13.5
 30
0.0
  0
VERTEX
  8
0
 10
-8.2
 20
9.457974
 30
0.0
  0
VERTEX
  8
0
 10
-5.242026
 20
6.5
 30
0.0
  0
VERTEX
  8
0
 10
5.377974
 20
6.5
 30
0.0
  0
VERTEX
  8
0
 10
8.335948
 20
9.457974
 30
0.0
  0
VERTEX
  8
0
 10
8.335948
 20
13.5
 30
0.0
  0
VERTEX
  8
0
 10
4.067974
 20
13.5
 30
0.0
  0
VERTEX
  8
0
 10
4.067974
 20
15.0
 30
0.0
  0
VERTEX
  8
0
 10
13.7351388206
 20
15.0
 30
0.0
 42
-0.446315231735
  0
VERTEX
  8
0
 10
15.0
 20
13.1596936465
 30
0.0
  0
VERTEX
  8
0
 10
15.0
 20
4.0
 30
0.0
  0
VERTEX
  8
0
 10
13.5
 20
4.0
 30
0.0
  0
VERTEX
  8
0
 10
13.5
 20
8.267974
 30
0.0
  0
VERTEX
  8
0
 10
9.457974
 20
8.267974
 30
0.0
  0
VERTEX
  8
0
 10
6.5
 20
5.31
 30
0.0
  0
VERTEX
  8
0
 10
6.5
 20
-5.242026
 30
0.0
  0
VERTEX
  8
0
 10
9.457974
 20
-8.2
 30
0.0
  0
VERTEX
  8
0
 10
13.5
 20
-8.2
 30
0.0
  0
VERTEX
  8
0
 10
13.5
 20
-4.0
 30
0.0
  0
VERTEX
  8
0
 10
15.0
 20
-4.0
 30
0.0
  0
VERTEX
  8
0
 10
15.0
 20
-13.5043051159
 30
0.0
 42
-0.427412241636
  0
VERTEX
  8
0
 10
13.4300755432
 20
-15.0
 30
0.0
  0
VERTEX
  8
0
 10
4.067974
 20
-15.0
 30
0.0
  0
VERTEX
  8
0
 10
4.067974
 20
-13.432026
 30
0.0
  0
VERTEX
  8
0
 10
8.267974
 20
-13.432026
 30
0.0
  0
VERTEX
  8
0
 10
8.267974
 20
-9.39
 30
0.0
  0
VERTEX
  8
0
 10
5.31
 20
-6.432026
 30
0.0
  0
VERTEX
  8
0
 10
-5.242026
 20
-6.432026
 30
0.0
  0
VERTEX
  8
0
 10
-8.2
 20
-9.39
 30
0.0
  0
VERTEX
  8
0
 10
-8.2
 20
-13.432026
 30
0.0
  0
VERTEX
  8
0
 10
-3.932026
 20
-13.432026
 30
0.0
  0
VERTEX
  8
0
 10
-3.932026
 20
-15.0
 30
0.0
  0
VERTEX
  8
0
 10
-13.5111667932
 20
-15.0
 30
0.0
 42
-0.450444149383
  0
VERTEX
  8
0
 10
-15.0
 20
-13.3173098734
 30
0.0
  0
VERTEX
  8
0
 10
-15.0
 20
-4.0
 30
0.0
  0
VERTEX
  8
0
 10
-13.432026
 20
-4.0
 30
0.0
  0
VERTEX
  8
0
 10
-13.432026
 20
-8.267974
 30
0.0
  0
VERTEX
  8
0
 10
-9.39
 20
-8.267974
 30
0.0
  0
VERTEX
  8
0
 10
-6.432026
 20
-5.31
 30
0.0
  0
VERTEX
  8
0
 10
-6.432026
 20
5.31
 30
0.0
  0
VERTEX
  8
0
 10
-9.39
 20
8.267974
 30
0.0
  0
VERTEX
  8
0
 10
-13.432026
 20
8.267974
 30
0.0
  0
SEQEND
  8
0
  0
CIRCLE
  8
0
 62
7
 10
-10.8411667932
 20
-10.832026
 30
0.0
 40
2.1
  0
CIRCLE
  8
0
 62
7
 10
10.862299
 20
-10.837701
 30
0.0
 40
2.1
  0
CIRCLE
  8
0
 62
7
 10
10.910299
 20
10.891763
 30
0.0
 40
2.1
  0
CIRCLE
  8
0
 62
7
 10
-10.84169
 20
10.858311
 30
0.0
 40
2.1
  0
CIRCLE
  8
0
 62
7
 10
0.0
 20
0.0
 30
0.0
 40
3.65
  0
ENDBLK
  0
ENDSEC
  0
SECTION
  2
ENTITIES
  0
INSERT
  2
SKETCH001
  8
0
 62
7
 10
0.0
 20
0.0
 30
0.0
  0
ENDSEC
  0
EOF
